<svg width="640" height="480" xmlns="http://www.w3.org/2000/svg" xmlns:svg="http://www.w3.org/2000/svg">
 <!-- Created with SVG-edit - https://github.com/SVG-Edit/svgedit-->

 <g class="layer">
  <title>Layer 1</title>
  <rect fill="#1f5284" height="136" id="svg_2" stroke="#000000" stroke-width="5" width="121" x="412" y="201"/>
  <path d="m136,141c7,40 -50,76 -50,76c0,0 137,40 137,40c0,0 -140,71 -137,74c3,3 194,-4 194,-4c0,0 -42,-152 -42,-152c0,0 130,218 90,75c-40,-143 -7,-22 -7,-22c0,0 54,-70 54,-70c0,0 -131,-36 -131,-36c0,0 -42,-25 -42,-25c0,0 -75,40 -75,40c0,0 9,4 9,4z" fill="#3f7f00" id="svg_3" stroke="#00ff00" stroke-width="5"/>
 </g>
</svg>